<svg width="83" height="96" viewBox="0 0 83 96" fill="none" xmlns="http://www.w3.org/2000/svg">
<path d="M41.8924 71.9005C38.623 67.6898 35.3277 63.8001 32.4475 59.6407C30.4236 56.7138 28.0105 55.7638 24.5335 56.0848C22.2372 56.2901 21.6793 57.1117 21.6534 59.2171C21.5496 66.6628 21.1993 74.1086 21.0955 81.5671C21.0566 84.6353 19.6165 85.8163 16.6844 85.5981C16.5806 85.5981 16.4638 85.5981 16.3601 85.5981C8.05685 85.6238 7.00598 84.6866 7.10977 76.5862C7.22653 67.3175 7.69359 58.0617 7.68062 48.7931C7.65467 37.8299 7.27843 26.8667 7.0968 15.8906C7.07085 14.5299 7.22653 13.1306 7.56385 11.8083C8.1347 9.61312 9.63965 8.47058 12.0268 8.47058C31.6042 8.48342 51.1946 8.47058 70.772 8.49626C74.0544 8.49626 75.3128 9.97256 75.2609 13.6826C75.0793 29.5497 74.6901 45.4168 74.703 61.2839C74.703 68.4986 75.5853 75.7132 75.8837 82.9279C76.0523 86.9332 75.3388 87.4852 71.2001 87.5109C68.9427 87.5109 66.6853 87.4467 64.4278 87.5237C61.7552 87.6136 60.5357 86.6508 60.6135 83.788C60.7692 77.2922 60.8341 70.7837 60.5746 64.3007C60.4968 62.2724 59.7832 59.2171 58.395 58.5495C56.0338 57.3813 53.2055 58.5881 51.2984 60.8089C48.2625 64.3521 45.2656 67.9209 41.8794 71.9133L41.8924 71.9005ZM22.6913 43.8378C25.1692 43.8378 27.6343 44.0047 30.0603 43.7993C33.6411 43.4912 35.9245 45.006 37.637 48.01C38.9863 50.3721 40.6729 52.5416 42.606 55.3915C43.9942 52.4774 45.1359 50.2309 46.1348 47.933C47.3025 45.2499 49.1707 44.056 52.1936 44.3C54.8272 44.5182 57.4869 44.3385 60.5876 44.3385C60.5876 38.4076 60.5616 32.6949 60.5876 26.9694C60.6006 24.1836 59.5238 22.5533 56.4749 22.4634C47.043 22.1553 37.5981 21.706 28.1662 21.4236C25.2601 21.3337 22.9248 22.9127 22.7691 25.7627C22.4448 31.6679 22.6653 37.6116 22.6653 43.8378H22.6913Z" fill="white" fill-opacity="1"/>
</svg>
